<svg xmlns="http://www.w3.org/2000/svg" viewBox="0 0 24 24" fill="#1a1c1f" role="img" aria-label="Mercedes-Benz">
  <title>Mercedes-Benz</title>
  <path fill-rule="evenodd" clip-rule="evenodd" d="M12 2.25c5.385 0 9.75 4.365 9.75 9.75S17.385 21.75 12 21.75 2.25 17.385 2.25 12 6.615 2.25 12 2.25zm0 1.35a8.4 8.4 0 1 0 0 16.8 8.4 8.4 0 0 0 0-16.8z"/>
  <path d="M12 5.2 13.18 11.72 12 12.28 10.82 11.72 12 5.2z"/>
  <path d="M12 12.28 10.82 11.72 5.62 17.38 7.28 18.02 12 14.02 16.72 18.02 18.38 17.38 13.18 11.72 12 12.28z"/>
</svg>
